<svg viewBox="0 0 89 25" fill="none" class="header-logo-icon"><g><path d="M25.3152 16.4648C25.3164 17.5839 25.0991 18.6923 24.6757 19.7267C24.2523 20.761 23.631 21.7009 22.8475 22.4927C22.0639 23.2845 21.1334 23.9126 20.1092 24.3412C19.085 24.7698 17.9872 24.9904 16.8784 24.9904H0.409645H0.333467C0.237266 24.973 0.150527 24.9211 0.0892683 24.8443C0.0280092 24.7674 -0.00363219 24.6708 0.000187414 24.5723C0.104276 22.3844 1.03954 20.3211 2.61162 18.8113C4.18369 17.3014 6.27169 16.461 8.44169 16.4648L16.8784 7.94403C17.9868 7.94403 19.0842 8.16446 20.1081 8.59273C21.132 9.021 22.0623 9.64871 22.8458 10.44C23.6293 11.2313 24.2506 12.1706 24.6743 13.2044C25.098 14.2382 25.3158 15.3461 25.3152 16.4648Z" fill="white"></path><path d="M16.8782 0.408492V7.94406C15.0768 7.94348 13.3226 8.52492 11.8722 9.60327C10.4217 10.6816 9.35134 12.2003 8.81763 13.9369C8.784 14.0047 8.73233 14.0617 8.66843 14.1016C8.60452 14.1414 8.5309 14.1625 8.45579 14.1625C8.38068 14.1625 8.30705 14.1414 8.24314 14.1016C8.17924 14.0617 8.12758 14.0047 8.09394 13.9369V13.9129C7.5537 12.1756 6.47631 10.6587 5.01971 9.58454C3.5631 8.51037 1.80391 7.93545 0 7.94406L0 0.408492C0 0.300152 0.0426376 0.19625 0.118533 0.119642C0.194428 0.0430336 0.297365 -4.34835e-06 0.404697 -4.34835e-06C0.510382 0.00100534 0.611374 0.0442005 0.685604 0.120142L4.0184 3.48423H12.8551L16.1879 0.120142C16.2438 0.0624913 16.3156 0.0230881 16.3939 0.00701767C16.4723 -0.00905275 16.5536 -0.00105273 16.6274 0.0299852C16.7012 0.0610232 16.7641 0.113674 16.808 0.181143C16.8518 0.248612 16.8746 0.327802 16.8735 0.408492H16.8782Z" fill="white"></path><path d="M33.7562 7.90561H41.7407C45.6067 7.90561 48.2682 10.5921 48.2682 14.1532C48.2682 17.7143 45.6067 20.4008 41.7407 20.4008H39.1982V24.9904H33.7562V7.90561ZM41.1312 15.7199C41.3452 15.7318 41.5592 15.6995 41.7604 15.6251C41.9615 15.5506 42.1455 15.4355 42.3011 15.2869C42.4567 15.1382 42.5807 14.9591 42.6654 14.7605C42.7501 14.5618 42.7938 14.3478 42.7938 14.1316C42.7938 13.9153 42.7501 13.7013 42.6654 13.5027C42.5807 13.3041 42.4567 13.1249 42.3011 12.9763C42.1455 12.8276 41.9615 12.7125 41.7604 12.6381C41.5592 12.5636 41.3452 12.5314 41.1312 12.5432H39.1982V15.7199H41.1312Z" fill="white"></path><path d="M52.8869 7.90561H59.0764L65.2277 24.9904H59.4192L58.4669 21.6936H53.4915L52.5393 24.9904H46.7212L52.8869 7.90561ZM57.3623 17.9162L56.034 13.1536H55.9102L54.5818 17.9162H57.3623Z" fill="white"></path><path d="M62.8759 7.90562H68.6797L70.9793 17.301H71.0983L73.7598 7.90082H78.1163L80.773 17.301H80.8968L83.1916 7.90082H89.0002L83.4345 24.9904H78.7209L75.9833 15.9554H75.8881L73.1552 24.9904H68.4369L62.8759 7.90562Z" fill="white"></path></g><defs><clipPath id="clip0"><rect width="89" height="25" fill="white"></rect></clipPath></defs></svg>